<?xml version="1.0" encoding="UTF-8" standalone="no"?>
<svg width="297px" height="251px" viewBox="0 0 297 251" version="1.1" xmlns="http://www.w3.org/2000/svg" xmlns:xlink="http://www.w3.org/1999/xlink">
    <!-- Generator: Sketch 3.6.1 (26313) - http://www.bohemiancoding.com/sketch -->
    <title>fav</title>
    <desc>Created with Sketch.</desc>
    <defs></defs>
    <g id="Page-1" stroke="none" stroke-width="1" fill="none" fill-rule="evenodd">
        <g id="fav" fill="#FFFFFF">
            <g id="Group">
                <path d="M171.768,219.265 C171.449,221.308 172.277,222.518 173.732,222.518 C174.264,222.518 174.88,222.357 175.553,222.015 L209.657,204.73 C210.916,204.092 212.576,203.772 214.234,203.772 C215.893,203.772 217.552,204.092 218.811,204.73 L252.915,222.015 C253.589,222.357 254.204,222.518 254.736,222.518 C256.191,222.518 257.02,221.307 256.701,219.265 L250.801,181.489 C250.366,178.7 251.639,174.783 253.629,172.783 L280.606,145.689 C282.597,143.69 281.947,141.688 279.161,141.24 L241.41,135.178 C238.624,134.731 235.292,132.309 234.005,129.797 L216.574,95.768 C215.93,94.512 215.083,93.884 214.235,93.884 C213.387,93.884 212.54,94.512 211.896,95.768 L194.465,129.797 C193.178,132.309 189.846,134.731 187.06,135.178 L149.308,141.24 C146.522,141.688 145.871,143.69 147.863,145.689 L174.84,172.783 C176.831,174.783 178.105,178.7 177.669,181.489 L171.768,219.265 L171.768,219.265 Z" id="Shape"></path>
                <path d="M297,79.421 C297,35.65 261.39,0.04 217.618,0.04 C188.014,0.04 162.145,16.326 148.5,40.412 C134.853,16.326 108.984,0.04 79.38,0.04 C35.61,0.04 0,35.65 0,79.421 C0,102.504 7.847,125.979 23.323,149.192 C35.337,167.213 51.987,185.149 72.811,202.502 C107.882,231.729 142.456,249.149 143.911,249.877 C145.355,250.6 146.928,250.96 148.5,250.96 C150.072,250.96 151.644,250.6 153.089,249.877 C153.822,249.51 162.97,244.9 176.351,236.677 C175.482,236.811 174.609,236.885 173.732,236.885 C168.932,236.885 164.414,234.822 161.337,231.228 C158.076,227.418 156.74,222.38 157.574,217.048 L163.14,181.397 L137.683,155.829 C132.867,150.993 131.163,144.495 133.128,138.446 C135.092,132.397 140.288,128.138 147.028,127.054 L182.657,121.333 L199.107,89.217 C202.219,83.144 207.875,79.517 214.233,79.517 C220.593,79.517 226.248,83.144 229.359,89.218 L245.809,121.334 L285.543,128.185 C293.143,111.888 297,95.559 297,79.421 Z" id="Shape"></path>
            </g>
        </g>
    </g>
</svg>