<?xml version="1.0" encoding="UTF-8" standalone="no"?>
<svg width="177px" height="33px" viewBox="0 0 177 33" version="1.1" xmlns="http://www.w3.org/2000/svg" xmlns:xlink="http://www.w3.org/1999/xlink" xmlns:sketch="http://www.bohemiancoding.com/sketch/ns">
    <!-- Generator: Sketch Beta 3.4 (15009) - http://www.bohemiancoding.com/sketch -->
    <title>lemon-diamond-2 + SourGems</title>
    <desc>Created with Sketch Beta.</desc>
    <defs>
        <linearGradient x1="50%" y1="50%" x2="0%" y2="50%" id="linearGradient-1">
            <stop stop-color="#7BB342" offset="0%"></stop>
            <stop stop-color="#429321" offset="100%"></stop>
        </linearGradient>
        <path id="path-2" d="M0.0125638658,16.676406 C0.0125638658,16.676406 -2.01547613,33.9561529 25.5529721,31.5075595 C25.5529721,31.5075595 7.82151775,20.3918984 22.0973662,0.0449027336 C22.0973662,0.0449027336 1.67460744,-0.163934877 0.0125638658,16.676406 Z"></path>
        <path id="path-3" d="M19.9187099,15.562955 C20.3813229,24.3975647 16.2790263,31.7544391 10.7558851,31.9950232 C5.23274381,32.2356074 0.380364764,25.268863 -0.0825143995,16.4342532 C-0.544861212,7.59964343 3.55743532,0.242526316 9.08057658,0.00194215268 C14.6037178,-0.23864201 19.4560969,6.72834519 19.9187099,15.562955"></path>
        <path id="path-5" d="M9.61399224,0.113858701 L0.0385954449,0.530935989 L7.60782763,11.4497183 C9.07738247,8.62194405 9.87351334,4.86776292 9.65977443,0.782930299 C9.64806271,0.558611664 9.63155983,0.335749644 9.61399224,0.113858701"></path>
        <path id="path-7" d="M-0.00212940386,10.6609616 L9.62091281,10.2416994 L2.47064083,-0.0242769085 C0.837388067,2.7209559 -0.108599597,6.49844286 -0.00212940386,10.6609616"></path>
        <path id="path-9" d="M9.62437309,10.3096747 C9.29591254,6.15710953 7.96397043,2.47867236 6.05815398,-0.112402086 L0.0385954449,10.7272376 L9.62437309,10.3096747"></path>
        <path id="path-11" d="M6.45342457,0.114344239 C3.89973699,0.225775249 1.66333059,1.91908962 0.075061486,4.5883357 L7.22533347,14.854312 L6.45342457,0.114344239"></path>
        <path id="path-13" d="M0.880508495,16.1242371 C3.64713646,16.0038236 6.04191727,14.0267122 7.64243045,10.9627236 L0.0385954449,0.0453978189 L0.880508495,16.1242371"></path>
        <path id="path-15" d="M0.0223587405,1.13445993 C0.236363828,5.21953532 1.42616823,8.88704789 3.19224256,11.5740161 L9.62091281,0.0453978189 L-0.00212940386,0.464660028 C0.00346028127,0.68703651 0.0106470193,0.910141299 0.0223587405,1.13445993"></path>
        <path id="path-17" d="M-0.00186322838,11.5740161 C1.91193849,14.4848174 4.50209211,16.2448933 7.26872007,16.1242371 L6.42680702,0.0453978189 L-0.00186322838,11.5740161"></path>
        <path id="path-19" d="M0.0652129932,0.114344239 L0.837121892,14.854312 L6.88223327,4.01345851 C5.02246518,1.49448649 2.61890057,0.0031559981 0.0652129932,0.114344239"></path>
    </defs>
    <g id="V1" stroke="none" stroke-width="1" fill="none" fill-rule="evenodd" sketch:type="MSPage">
        <g id="articles-4" sketch:type="MSArtboardGroup" transform="translate(-517.000000, -23.000000)">
            <g id="lemon-diamond-2-+-SourGems" sketch:type="MSLayerGroup" transform="translate(515.000000, 21.000000)">
                <g id="lemon-diamond-2" transform="translate(20.500000, 19.000000) rotate(-8.000000) translate(-20.500000, -19.000000) translate(3.000000, 3.000000)">
                    <g id="Fill-1">
                        <use stroke="#306134" stroke-width="0.6" fill="none" sketch:type="MSShapeGroup" xlink:href="#path-2"></use>
                        <use stroke="none" fill="url(#linearGradient-1)" fill-rule="evenodd" xlink:href="#path-2"></use>
                    </g>
                    <g id="Group-5" transform="translate(12.748119, -0.003499)">
                        <mask id="mask-4" sketch:name="Clip 4" fill="white">
                            <use xlink:href="#path-3"></use>
                        </mask>
                        <use id="Clip-4" stroke="#316234" stroke-width="0.6" fill="#316234" sketch:type="MSShapeGroup" xlink:href="#path-3"></use>
                        <g id="Group-8" mask="url(#mask-4)">
                            <g transform="translate(9.848493, 14.808914)">
                                <mask id="mask-6" sketch:name="Clip 7" fill="white">
                                    <use xlink:href="#path-5"></use>
                                </mask>
                                <g id="Clip-7"></g>
                                <path d="M-0.964886123,-0.90989853 L10.4729405,-1.40806069 L11.2158363,12.7771797 L-0.222256528,13.2753419 L-0.964886123,-0.90989853" id="Fill-6" stroke="none" fill="#86BC40" fill-rule="evenodd" sketch:type="MSShapeGroup" mask="url(#mask-6)"></path>
                            </g>
                        </g>
                        <path d="M19.4627513,14.9227729 L9.88708829,15.3398502 L17.4563205,26.2586325 C18.9258753,23.4308582 19.7220062,19.6766771 19.5082673,15.5918445 C19.4962894,15.3675258 19.4800527,15.1446638 19.4627513,14.9227729" id="Stroke-9" stroke="#FFF475" stroke-width="0.6" sketch:type="MSShapeGroup" mask="url(#mask-4)"></path>
                        <g id="Group-12" mask="url(#mask-4)">
                            <g transform="translate(0.266175, 5.098151)">
                                <mask id="mask-8" sketch:name="Clip 11" fill="white">
                                    <use xlink:href="#path-7"></use>
                                </mask>
                                <g id="Clip-11"></g>
                                <path d="M-1.55819127,-1.33328781 L9.91663377,-1.83314936 L10.6243944,11.6825339 L-0.850430666,12.1823954 L-1.55819127,-1.33328781" id="Fill-10" stroke="none" fill="#86BC40" fill-rule="evenodd" sketch:type="MSShapeGroup" mask="url(#mask-8)"></path>
                            </g>
                        </g>
                        <path d="M0.264046078,15.7591124 L9.88708829,15.3398502 L2.73681631,5.07387387 C1.10356355,7.81910669 0.157575886,11.5965936 0.264046078,15.7591124 L0.264046078,15.7591124 Z" id="Stroke-13" stroke="#FFF475" stroke-width="0.6" sketch:type="MSShapeGroup" mask="url(#mask-4)"></path>
                        <g id="Group-16" mask="url(#mask-4)">
                            <g transform="translate(9.848493, 4.612613)">
                                <mask id="mask-10" sketch:name="Clip 15" fill="white">
                                    <use xlink:href="#path-9"></use>
                                </mask>
                                <g id="Clip-15"></g>
                                <path d="M-1.5177326,-1.26701185 L9.92009405,-1.76517402 L10.6278547,11.7505092 L-0.809971993,12.2486714 L-1.5177326,-1.26701185" id="Fill-14" stroke="none" fill="#7BB342" fill-rule="evenodd" sketch:type="MSShapeGroup" mask="url(#mask-10)"></path>
                            </g>
                        </g>
                        <path d="M19.4728659,14.9222873 C19.1444054,10.7697221 17.8124633,7.09128497 15.9066468,4.50021053 L9.88708829,15.3398502 L19.4728659,14.9222873" id="Stroke-17" stroke="#FFF475" stroke-width="0.6" sketch:type="MSShapeGroup" mask="url(#mask-4)"></path>
                        <g id="Group-20" mask="url(#mask-4)">
                            <g transform="translate(2.661755, 0.485538)">
                                <mask id="mask-12" sketch:name="Clip 19" fill="white">
                                    <use xlink:href="#path-11"></use>
                                </mask>
                                <g id="Clip-19"></g>
                                <path d="M-1.14774868,-1.03905168 L7.30172583,-1.40708962 L8.22881503,16.2951465 L-0.22092565,16.6631844 L-1.14774868,-1.03905168" id="Fill-18" stroke="none" fill="#7BB342" fill-rule="evenodd" sketch:type="MSShapeGroup" mask="url(#mask-12)"></path>
                            </g>
                        </g>
                        <path d="M9.11517939,0.599882409 C6.56149181,0.711313419 4.32508541,2.40462779 2.73681631,5.07387387 L9.88708829,15.3398502 L9.11517939,0.599882409" id="Stroke-21" stroke="#FFF475" stroke-width="0.6" sketch:type="MSShapeGroup" mask="url(#mask-4)"></path>
                        <g id="Group-24" mask="url(#mask-4)">
                            <g transform="translate(9.848493, 15.294452)">
                                <mask id="mask-14" sketch:name="Clip 23" fill="white">
                                    <use xlink:href="#path-13"></use>
                                </mask>
                                <g id="Clip-23"></g>
                                <path d="M-0.964886123,-1.3954367 L7.90328242,-1.78168231 L8.90037578,17.2594253 L0.0322072334,17.6456709 L-0.964886123,-1.3954367" id="Fill-22" stroke="none" fill="#7BB342" fill-rule="evenodd" sketch:type="MSShapeGroup" mask="url(#mask-14)"></path>
                            </g>
                        </g>
                        <path d="M10.7290013,31.4186894 C13.4956293,31.298276 15.8904101,29.3211645 17.4909233,26.2571759 L9.88708829,15.3398502 L10.7290013,31.4186894" id="Stroke-25" stroke="#FFF475" stroke-width="0.6" sketch:type="MSShapeGroup" mask="url(#mask-4)"></path>
                        <g id="Group-28" mask="url(#mask-4)">
                            <g transform="translate(0.266175, 15.294452)">
                                <mask id="mask-16" sketch:name="Clip 27" fill="white">
                                    <use xlink:href="#path-15"></use>
                                </mask>
                                <g id="Clip-27"></g>
                                <path d="M-1.01625799,-0.975688952 L10.4692141,-1.47603604 L11.2121098,12.7092044 L-0.27336222,13.2095514 L-1.01625799,-0.975688952" id="Fill-26" stroke="none" fill="#7BB342" fill-rule="evenodd" sketch:type="MSShapeGroup" mask="url(#mask-16)"></path>
                            </g>
                        </g>
                        <path d="M0.288534223,16.4289123 C0.502539311,20.5139877 1.69234372,24.1815002 3.45841804,26.8684685 L9.88708829,15.3398502 L0.264046078,15.7591124 C0.269635764,15.9814889 0.276822502,16.2045936 0.288534223,16.4289123 L0.288534223,16.4289123 Z" id="Stroke-29" stroke="#FFF475" stroke-width="0.6" sketch:type="MSShapeGroup" mask="url(#mask-4)"></path>
                        <g id="Group-32" mask="url(#mask-4)">
                            <g transform="translate(3.460281, 15.294452)">
                                <mask id="mask-18" sketch:name="Clip 31" fill="white">
                                    <use xlink:href="#path-17"></use>
                                </mask>
                                <g id="Clip-31"></g>
                                <path d="M-1.59306026,-1.08979042 L7.27510828,-1.47603604 L8.27220164,17.5650716 L-0.595966905,17.9513172 L-1.59306026,-1.08979042" id="Fill-30" stroke="none" fill="#A5CB51" fill-rule="evenodd" sketch:type="MSShapeGroup" mask="url(#mask-18)"></path>
                            </g>
                        </g>
                        <path d="M3.45841804,26.8684685 C5.37221976,29.7792698 7.96237338,31.5393457 10.7290013,31.4186894 L9.88708829,15.3398502 L3.45841804,26.8684685" id="Stroke-33" stroke="#FFF475" stroke-width="0.6" sketch:type="MSShapeGroup" mask="url(#mask-4)"></path>
                        <g id="Group-36" mask="url(#mask-4)">
                            <g transform="translate(9.049966, 0.485538)">
                                <mask id="mask-20" sketch:name="Clip 35" fill="white">
                                    <use xlink:href="#path-19"></use>
                                </mask>
                                <g id="Clip-35"></g>
                                <path d="M-0.938268575,-1.32649028 L7.51120593,-1.69452821 L8.43829514,16.0077079 L-0.0114455457,16.3757459 L-0.938268575,-1.32649028" id="Fill-34" stroke="none" fill="#A5CB51" fill-rule="evenodd" sketch:type="MSShapeGroup" mask="url(#mask-20)"></path>
                            </g>
                        </g>
                        <path d="M9.11517939,0.599882409 L9.88708829,15.3398502 L15.9321997,4.49899668 C14.0724316,1.98002466 11.668867,0.488694168 9.11517939,0.599882409 L9.11517939,0.599882409 Z" id="Stroke-37" stroke="#FFF475" stroke-width="0.6" sketch:type="MSShapeGroup" mask="url(#mask-4)"></path>
                        <path d="M11.7681566,15.6039536 C11.8370432,16.4215999 11.226477,17.1030527 10.4045445,17.1253875 C9.58261196,17.1477222 8.8599446,16.502442 8.79105801,15.6845529 C8.72259929,14.8664211 9.3331655,14.1852111 10.155098,14.1631191 C10.9770305,14.1407843 11.69927,14.7858218 11.7681566,15.6039536 L11.7681566,15.6039536 Z" id="Fill-38" stroke="#316234" stroke-width="0.6" fill="#FFFFFF" sketch:type="MSShapeGroup"></path>
                    </g>
                    <g id="stars" transform="translate(13.148055, 0.757760)" fill="#FFFFFF" sketch:type="MSShapeGroup">
                        <path d="M3.91001698,5.32907052e-15 L3.93197963,0.20482907 C4.13263837,2.07889457 5.66694567,3.56033086 7.60789474,3.75407507 L7.82003396,3.7752809 L7.26872156,3.83030361 C5.52535314,4.00436816 4.14728014,5.33495386 3.9670034,7.01824719 L3.91001698,7.5505618 L3.86392869,7.12034043 C3.67732937,5.37752618 2.25058913,3.99995027 0.445658744,3.81978102 L1.33226763e-14,3.7752809 L0.198162988,3.75552092 C2.14726486,3.56089314 3.68797793,2.07327181 3.88955178,0.191334449 L3.91001698,5.32907052e-15" id="Imported-Layers"></path>
                        <path d="M3.327786,22.0279395 L3.34556529,22.1937535 C3.50800332,23.7108542 4.75006161,24.9101121 6.32130609,25.0669527 L6.49303784,25.0841193 L6.04673733,25.1286615 C4.63543908,25.2695709 3.51985617,26.3467117 3.37391786,27.7093777 L3.327786,28.1402991 L3.29047643,27.7920246 C3.13941984,26.381175 1.98443965,25.2659945 0.523305523,25.1201432 L0.16253416,25.0841193 L0.322951817,25.0681231 C1.90079619,24.9105673 3.1480401,23.7063024 3.31121894,22.1828293 L3.327786,22.0279395" id="Imported-Layers"></path>
                        <path d="M15.654313,1.36716775 L15.6700006,1.51347423 C15.8133283,2.85209245 16.9092621,3.91026123 18.2956543,4.04864994 L18.4471823,4.06379697 L18.0533877,4.1030989 C16.8081245,4.22743072 15.8237867,5.17784908 15.6950176,6.38020146 L15.654313,6.76042618 L15.6213928,6.4531252 C15.4881076,5.20825788 14.4690074,4.22427509 13.1797714,4.09558277 L12.8614437,4.06379697 L13.0029887,4.04968269 C14.3952043,3.91066285 15.4957137,2.84807619 15.639695,1.50383522 L15.654313,1.36716775" id="Imported-Layers"></path>
                        <path d="M18.9019521,11.7335969 L18.9176398,11.8799034 C19.0609674,13.2185216 20.1569012,14.2766904 21.5432934,14.4150791 L21.6948214,14.4302261 L21.3010268,14.4695281 C20.0557637,14.5938599 19.0714258,15.5442782 18.9426567,16.7466306 L18.9019521,17.1268553 L18.8690319,16.8195544 C18.7357467,15.574687 17.7166465,14.5907043 16.4274105,14.4620119 L16.1090829,14.4302261 L16.2506279,14.4161119 C17.6428435,14.277092 18.7433528,13.2145054 18.8873341,11.8702644 L18.9019521,11.7335969" id="Imported-Layers"></path>
                    </g>
                </g>
                <text id="SOURGEMS" sketch:type="MSTextLayer" font-family="Ubuntu" font-size="24" font-weight="420" line-spacing="34" fill="#FFFFFF">
                    <tspan x="51" y="21">SOURGEMS</tspan>
                </text>
            </g>
        </g>
    </g>
</svg>